<?xml version="1.0" encoding="utf-8"?>
<!-- Generator: Adobe Illustrator 23.0.2, SVG Export Plug-In . SVG Version: 6.00 Build 0)  -->
<svg version="1.1" id="Layer_1" xmlns="http://www.w3.org/2000/svg" xmlns:xlink="http://www.w3.org/1999/xlink" x="0px" y="0px"
	 viewBox="0 0 297 297" style="enable-background:new 0 0 297 297;" xml:space="preserve">
<style type="text/css">
	.st0{fill:#1565C0;}
	.st1{fill:#044FAA;}
	.st2{fill:#02489B;}
	.st3{fill:#003C8F;}
	.st4{fill:#0457AA;}
	.st5{fill:#024AA0;}
</style>
<g>
	<g>
		<path class="st0" d="M292.9,80c-26.6,7.9-148.1,84-280.4,215.3c-2.5,2.4-6.7,2.2-9.4-0.6L2.2,294c-2.8-2.8-3-7-0.6-9.4
			C133,152.2,209.1,30.8,217,4.1c1.4-4.6,7.2-5.6,10.9-1.9L294.7,69C298.4,72.8,297.4,78.6,292.9,80z"/>
	</g>
	<g>
		<path class="st1" d="M294.8,69.1L227.9,2.2c-3.7-3.7-9.5-2.7-10.9,1.9c-4.2,14.2-27.9,55.5-69.1,111V175
			c72.4-57.2,127.9-89.9,144.9-95C297.4,78.6,298.4,72.8,294.8,69.1z"/>
	</g>
	<g>
		<path class="st2" d="M227,209l-62.8,62.8c-18.2,18.2-47.7,18.2-65.8,0l-0.5-0.5c-18.2-18.2-18.2-47.7,0-65.8l62.8-62.8
			c18.2-18.2,47.7-18.2,65.8,0l0.5,0.5C245.2,161.3,245.2,190.8,227,209z M110,217.5c-11.5,11.5-11.5,30.1,0,41.6l0.5,0.5
			c11.5,11.5,30.1,11.5,41.6,0l62.8-62.8c11.5-11.5,11.5-30.1,0-41.6l-0.5-0.5c-11.5-11.5-30.1-11.5-41.6,0L110,217.5z"/>
	</g>
	<g>
		<path class="st3" d="M227,143.1l-0.5-0.5c-18.2-18.2-47.7-18.2-65.8,0L148,155.3v24.3l24.9-24.9c11.5-11.5,30.1-11.5,41.6,0
			l0.5,0.5c11.5,11.5,11.5,30.1,0,41.6l-62.8,62.8c-1.3,1.3-2.7,2.4-4.2,3.4v19.2c5.9-2.3,11.5-5.8,16.3-10.5L227,209
			C245.2,190.8,245.2,161.3,227,143.1z"/>
	</g>
	<g>
		<path class="st4" d="M164.2,247.2l-11.6,11.6l-80.4-80.4c-3.2-3.2-3.2-8.4,0-11.6l0,0c3.2-3.2,8.4-3.2,11.6,0L164.2,247.2z"/>
	</g>
	<g>
		<path class="st4" d="M189.1,222.2l-11.6,11.6l-80.4-80.4c-3.2-3.2-3.2-8.4,0-11.6l0,0c3.2-3.2,8.4-3.2,11.6,0L189.1,222.2z"/>
	</g>
	<g>
		<path class="st4" d="M214.1,197.3l-11.6,11.6L122,128.5c-3.2-3.2-3.2-8.4,0-11.6l0,0c3.2-3.2,8.4-3.2,11.6,0L214.1,197.3z"/>
	</g>
	<g>
		<polygon class="st5" points="164.2,247.2 147.9,231 147.9,254.2 152.5,258.8 		"/>
	</g>
	<g>
		<polygon class="st5" points="189.1,222.2 147.9,181.1 147.9,204.3 177.5,233.9 		"/>
	</g>
	<g>
		<polygon class="st5" points="214.1,197.3 147.9,131.1 147.9,154.4 202.5,208.9 		"/>
	</g>
	<g>
		<circle class="st2" cx="74.4" cy="169" r="14.3"/>
	</g>
	<g>
		<circle class="st2" cx="99.3" cy="144" r="14.3"/>
	</g>
	<g>
		<ellipse class="st2" cx="124.3" cy="119.1" rx="14.3" ry="14.3"/>
	</g>
</g>
</svg>
